<svg width="400" height="225" viewBox="0 0 400 225" xmlns="http://www.w3.org/2000/svg">
  <defs>
    <linearGradient id="bg" x1="0%" y1="0%" x2="100%" y2="100%">
      <stop offset="0%" style="stop-color:#0a0a0a"/>
      <stop offset="100%" style="stop-color:#171717"/>
    </linearGradient>
    <linearGradient id="multilingual" x1="0%" y1="0%" x2="100%" y2="0%">
      <stop offset="0%" style="stop-color:#3b82f6"/>
      <stop offset="50%" style="stop-color:#10b981"/>
      <stop offset="100%" style="stop-color:#06b6d4"/>
    </linearGradient>
  </defs>
  
  <!-- Background -->
  <rect width="400" height="225" fill="url(#bg)"/>
  
  <!-- Globe icon representing multilingual -->
  <g transform="translate(80, 80)">
    <circle cx="0" cy="0" r="25" fill="none" stroke="url(#multilingual)" stroke-width="2"/>
    <ellipse cx="0" cy="0" rx="25" ry="12" fill="none" stroke="url(#multilingual)" stroke-width="1.5"/>
    <ellipse cx="0" cy="0" rx="12" ry="25" fill="none" stroke="url(#multilingual)" stroke-width="1.5"/>
    <line x1="-25" y1="0" x2="25" y2="0" stroke="url(#multilingual)" stroke-width="1"/>
    <text x="0" y="35" font-family="system-ui, sans-serif" font-size="10" fill="#10b981" text-anchor="middle">🌍</text>
  </g>
  
  <!-- Text sample with NER entities -->
  <g transform="translate(150, 60)">
    <rect x="0" y="0" width="220" height="100" rx="8" fill="#171717" stroke="#404040" stroke-width="1"/>
    
    <!-- Sample text with entity highlighting -->
    <text x="10" y="20" font-family="monospace" font-size="11" fill="#f5f5f5">John Smith works at</text>
    <rect x="10" y="25" width="65" height="12" rx="6" fill="#3b82f6" opacity="0.3"/>
    <text x="12" y="33" font-family="monospace" font-size="8" fill="#3b82f6">PER</text>
    
    <text x="85" y="20" font-family="monospace" font-size="11" fill="#f5f5f5">Google</text>
    <rect x="85" y="25" width="35" height="12" rx="6" fill="#10b981" opacity="0.3"/>
    <text x="87" y="33" font-family="monospace" font-size="8" fill="#10b981">ORG</text>
    
    <text x="10" y="50" font-family="monospace" font-size="11" fill="#f5f5f5">in</text>
    <text x="25" y="50" font-family="monospace" font-size="11" fill="#f5f5f5">San Francisco</text>
    <rect x="25" y="55" width="75" height="12" rx="6" fill="#06b6d4" opacity="0.3"/>
    <text x="27" y="63" font-family="monospace" font-size="8" fill="#06b6d4">LOC</text>
    
    <!-- Language labels -->
    <text x="150" y="20" font-family="system-ui, sans-serif" font-size="9" fill="#a3a3a3">EN</text>
    <text x="170" y="20" font-family="system-ui, sans-serif" font-size="9" fill="#a3a3a3">ES</text>
    <text x="190" y="20" font-family="system-ui, sans-serif" font-size="9" fill="#a3a3a3">FR</text>
    <text x="150" y="35" font-family="system-ui, sans-serif" font-size="9" fill="#a3a3a3">DE</text>
    <text x="170" y="35" font-family="system-ui, sans-serif" font-size="9" fill="#a3a3a3">IT</text>
    
    <!-- Model comparison -->
    <text x="10" y="85" font-family="system-ui, sans-serif" font-size="9" fill="#525252">Baseline vs Fine-tuned</text>
  </g>
  
  <!-- Entity type legend -->
  <g transform="translate(60, 180)">
    <rect x="0" y="0" width="15" height="8" rx="4" fill="#3b82f6" opacity="0.6"/>
    <text x="20" y="7" font-family="system-ui, sans-serif" font-size="9" fill="#3b82f6">PER</text>
    
    <rect x="60" y="0" width="15" height="8" rx="4" fill="#10b981" opacity="0.6"/>
    <text x="80" y="7" font-family="system-ui, sans-serif" font-size="9" fill="#10b981">ORG</text>
    
    <rect x="120" y="0" width="15" height="8" rx="4" fill="#06b6d4" opacity="0.6"/>
    <text x="140" y="7" font-family="system-ui, sans-serif" font-size="9" fill="#06b6d4">LOC</text>
    
    <rect x="180" y="0" width="15" height="8" rx="4" fill="#8b5cf6" opacity="0.6"/>
    <text x="200" y="7" font-family="system-ui, sans-serif" font-size="9" fill="#8b5cf6">MISC</text>
  </g>
  
  <!-- XLM-RoBERTa model indicator -->
  <g transform="translate(300, 110)">
    <rect x="0" y="0" width="80" height="40" rx="8" fill="#171717" stroke="#10b981" stroke-width="1.5"/>
    <text x="40" y="15" font-family="system-ui, sans-serif" font-size="8" fill="#10b981" text-anchor="middle">XLM-RoBERTa</text>
    <text x="40" y="25" font-family="system-ui, sans-serif" font-size="8" fill="#a3a3a3" text-anchor="middle">Multilingual</text>
    <text x="40" y="35" font-family="system-ui, sans-serif" font-size="8" fill="#a3a3a3" text-anchor="middle">Transformer</text>
  </g>
  
  <!-- Title -->
  <text x="200" y="35" font-family="system-ui, sans-serif" font-size="18" font-weight="600" fill="#f5f5f5">MultiNER Studio</text>
  <text x="200" y="200" font-family="system-ui, sans-serif" font-size="12" fill="#a3a3a3">Multilingual NER • XLM-RoBERTa • Comparison</text>
</svg>



